# xmcd
#
# Track frame offsets:
#	150
#	17781
#	37386
#	54699
#	70524
#	92293
#	105762
#	122931
#	141560
#	159131
#	181276
#	200392
#	217813
#	227025
#	239244
#
# Disc length: 3410 seconds
#
# Revision: 0
# Processed by: cddbd v1.5.2PL0 Copyright (c) Steve Scherf et al.
# Submitted via: EasyCDDAExtractor 7.5.0.1
#
DISCID=cd0d500f
DTITLE=Brian Burns - Angels and Outlaws
DYEAR=2002
DGENRE=Texas Country
TTITLE0=Welcome To Texas
TTITLE1=Angels and Outlaws
TTITLE2=Temper Temper
TTITLE3=Fast Trains to Texas
TTITLE4=I Couldn't Lay This Guitar Down
TTITLE5=Don't Tell Mama
TTITLE6=Send Me A Honky Tonk Angel
TTITLE7=Gimme A Ride To Heaven
TTITLE8=East India Company (We Be Sailing)
TTITLE9=Borders To Cross, Bridges To Burn
TTITLE10=Good Night Angelina
TTITLE11=Painted By Memory
TTITLE12=Picasso's Last Words (Drink To Me)
TTITLE13=Angels and Outlaws (Reprise)
TTITLE14=The Angel Of Goliad
EXTD=
EXTT0=
EXTT1=
EXTT2=
EXTT3=
EXTT4=
EXTT5=
EXTT6=
EXTT7=
EXTT8=
EXTT9=
EXTT10=
EXTT11=
EXTT12=
EXTT13=
EXTT14=
PLAYORDER=
